<svg width="48" height="48" viewBox="0 0 48 48" fill="none" xmlns="http://www.w3.org/2000/svg">
<path d="M36 0C42.6274 0 48 5.37258 48 12V36C48 42.6274 42.6274 48 36 48H12C5.37258 48 0 42.6274 0 36V12C0 5.37258 5.37258 0 12 0H36Z" fill="#3CDABE"/>
<path d="M36 0C42.6274 0 48 5.37258 48 12V36C48 42.6274 42.6274 48 36 48H12C5.37258 48 0 42.6274 0 36V12C0 5.37258 5.37258 0 12 0H36Z" stroke="#E5E7EB"/>
<path d="M22.1605 37.2781L10.1609 26.1046C9.88203 25.8463 9.61641 25.5681 9.3707 25.2833H15.148C16.6488 25.2833 18.0035 24.3825 18.5812 22.9983L19.2785 21.3292L22.5523 28.5817C22.8047 29.1447 23.3559 29.5089 23.9734 29.5156C24.591 29.5222 25.1555 29.1844 25.4344 28.6347L28.25 23.0115L28.3629 23.2367C28.9938 24.4951 30.282 25.2899 31.6898 25.2899H38.6293C38.3836 25.5747 38.118 25.8529 37.8391 26.1112L25.8395 37.2781C25.3414 37.7417 24.684 38 24 38C23.316 38 22.6586 37.7417 22.1605 37.2781ZM40.4488 22.1041H31.6832C31.484 22.1041 31.298 21.9915 31.2051 21.8127L29.6645 18.7461C29.3922 18.2096 28.841 17.8652 28.2367 17.8652C27.6324 17.8652 27.0812 18.203 26.809 18.7461L24.0598 24.2302L20.673 16.6863C20.4141 16.11 19.8297 15.7391 19.1988 15.7524C18.568 15.7656 17.9969 16.1432 17.7512 16.7326L15.6395 21.7862C15.5598 21.9849 15.3605 22.1107 15.148 22.1107H8.0625C7.88984 22.1107 7.73047 22.1372 7.57773 22.1836C7.19922 21.1239 7 19.9979 7 18.8521V18.4679C7 13.8383 10.3535 9.89077 14.9289 9.12909C17.957 8.62573 21.0383 9.61259 23.2031 11.7718L24 12.5666L24.7969 11.7718C26.9617 9.61259 30.043 8.62573 33.0711 9.12909C37.6465 9.89077 41 13.8383 41 18.4679V18.8521C41 19.9714 40.8141 21.0709 40.4488 22.1041Z" fill="white"/>
</svg>
